<svg width="628" height="628" fill="none" xmlns="http://www.w3.org/2000/svg">
  <g clip-path="url(#clip0)" fill="#000">
    <path d="M429.09 167.381l4.307-7.46c4.141-7.175 1.682-16.348-5.492-20.49l-53.651-30.976-15.025-56.076c-2.144-8.001-10.37-12.75-18.371-10.606l-186.231 49.9c-8.002 2.144-12.751 10.37-10.607 18.371l15.026 56.076-30.975 53.652c-4.142 7.175-1.685 16.348 5.489 20.491l7.46 4.307c-10.965 25.576-13.046 53.898-5.733 81.189l63.091 235.458c6.726 25.103 32.623 40.054 57.727 33.328l248.306-66.534c25.104-6.726 40.056-32.623 33.329-57.726l-63.091-235.459c-7.312-27.291-23.274-50.778-45.559-67.445zm-252.209-50.612l157.252-42.136 8.869 33.099-157.253 42.136-8.868-33.099zm8.145 64.351l174.229-46.684 40.661 23.476-3.854 6.675-.007.011-.006.012c-4.064 7.036-10.625 12.07-18.479 14.175-7.831 2.098-16.008 1.032-23.031-3.002a15.011 15.011 0 0 0-20.577 5.476c-4.006 6.926-10.736 12.087-18.469 14.159-7.717 2.068-16.109.974-23.033-3.002a15.012 15.012 0 0 0-20.565 5.46c-4.004 6.935-10.74 12.102-18.481 14.176-7.714 2.067-16.103.974-23.025-2.999a15.008 15.008 0 0 0-20.582 5.474c-4.062 7.028-10.622 12.055-18.47 14.158-7.853 2.105-16.052 1.026-23.09-3.036l-.012-.007-.012-.006-6.674-3.854 23.477-40.662zm323.736 296.929c2.445 9.125-2.99 18.538-12.116 20.983L248.34 565.566c-9.125 2.445-18.54-2.989-20.985-12.115l-63.091-235.458c-5.42-20.23-4.041-41.206 3.773-60.261 10.077 2.676 20.722 2.703 31.066-.069 11.154-2.989 20.999-8.955 28.652-17.226 10.764 3.335 22.271 3.581 33.425.592 11.154-2.988 20.998-8.955 28.652-17.225 10.764 3.334 22.273 3.58 33.426.592 11.154-2.989 20.997-8.955 28.651-17.226 10.763 3.335 22.272 3.581 33.426.592 10.344-2.772 19.55-8.117 26.938-15.473 16.296 12.595 27.978 30.071 33.398 50.302l63.091 235.458z"/>
    <path d="M403.233 274.561l-186.231 49.9c-8.001 2.144-12.75 10.37-10.606 18.371l37.425 139.673c2.144 8.002 10.37 12.751 18.371 10.607l186.231-49.9c8.002-2.144 12.75-10.37 10.606-18.372l-37.425-139.672c-2.144-8.002-10.368-12.751-18.371-10.607zm22.936 143.555l-157.252 42.136-29.661-110.695 157.253-42.136 29.66 110.695z"/>
  </g>
  <defs>
    <clipPath id="clip0">
      <path fill="#fff" transform="rotate(-15 505.278 64.723)" d="M0 0h512v512H0z"/>
    </clipPath>
  </defs>
</svg>
